<?xml version="1.0" encoding="utf-8"?>
<!-- Generator: Adobe Illustrator 18.1.1, SVG Export Plug-In . SVG Version: 6.00 Build 0)  -->
<svg version="1.1" id="Layer_1" xmlns="http://www.w3.org/2000/svg" xmlns:xlink="http://www.w3.org/1999/xlink" x="0px" y="0px"
	 viewBox="0 0 50 50" enable-background="new 0 0 50 50" xml:space="preserve">
<path fill="none" stroke="#1A83BC" stroke-width="8" stroke-miterlimit="10" d="M27.9,8.7c-0.1,0-0.2,0-0.2,0c-0.1,0-0.2,0-0.2,0
	H5.7v5.4c0,4.5,2.5,8.4,6.1,10.4c0,0.1,0,0.2,0,0.3C11.8,33.8,19,41,27.9,41C36.8,41,44,33.8,44,24.9S36.8,8.7,27.9,8.7z"/>
<path fill="#1A83BC" d="M27.8,28.5H14.4c-1.9,0-3.5-1.6-3.5-3.5v-4.5h16.9c2.2,0,4,1.8,4,4v0C31.8,26.7,30,28.5,27.8,28.5z"/>
</svg>
