<?xml version="1.0" encoding="utf-8"?>
<!-- Generator: Adobe Illustrator 18.1.1, SVG Export Plug-In . SVG Version: 6.00 Build 0)  -->
<svg version="1.1" id="Layer_1" xmlns="http://www.w3.org/2000/svg" xmlns:xlink="http://www.w3.org/1999/xlink" x="0px" y="0px"
	 viewBox="0 0 180.3 40.5" enable-background="new 0 0 180.3 40.5" xml:space="preserve">
<path fill="none" stroke="#FFFFFF" stroke-width="8" stroke-miterlimit="10" d="M26.4,4.2c-0.1,0-0.2,0-0.2,0c-0.1,0-0.2,0-0.2,0
	H4.2v5.4c0,4.5,2.5,8.4,6.1,10.4c0,0.1,0,0.2,0,0.3c0,8.9,7.2,16.1,16.1,16.1c8.9,0,16.1-7.2,16.1-16.1S35.3,4.2,26.4,4.2z"/>
<path fill="#FFFFFF" d="M26.3,24H12.9c-1.9,0-3.5-1.6-3.5-3.5V16h16.9c2.2,0,4,1.8,4,4v0C30.3,22.2,28.5,24,26.3,24z"/>
<g>
	<path fill="#FFFFFF" d="M66.4,10.1v16.6h-3.2v-1.6C62,26.4,60.6,27,58.9,27s-3-0.6-4.1-1.8s-1.6-2.6-1.6-4.4s0.5-3.3,1.6-4.5
		c1.1-1.2,2.4-1.8,4.1-1.8s3.1,0.6,4.3,1.9v-6.4H66.4z M57.6,18c-0.6,0.7-1,1.7-1,2.9s0.3,2.1,0.9,2.9c0.6,0.7,1.4,1.1,2.4,1.1
		s1.8-0.4,2.4-1.1s0.9-1.7,0.9-2.9s-0.3-2.1-0.9-2.9S61,16.9,60,16.9S58.2,17.2,57.6,18z"/>
	<path fill="#FFFFFF" d="M80.6,16.4c1.2,1.2,1.8,2.7,1.8,4.5c0,0.2,0,0.5-0.1,1h-9.6c0.1,0.9,0.5,1.7,1.2,2.2s1.4,0.8,2.4,0.8
		c1.2,0,2.2-0.5,3.1-1.5l2.6,1.2c-0.6,0.8-1.4,1.4-2.4,1.8S77.4,27,76.3,27c-2,0-3.7-0.6-5-1.7s-2-2.6-2-4.4s0.6-3.3,1.9-4.5
		c1.3-1.2,2.8-1.8,4.8-1.8S79.4,15.2,80.6,16.4z M73.9,17.7c-0.5,0.5-0.9,1.3-1.1,2.2H79c-0.2-0.9-0.5-1.6-1.1-2.2s-1.2-0.8-2.1-0.8
		C75.1,16.9,74.4,17.1,73.9,17.7z"/>
	<path fill="#FFFFFF" d="M90.4,14.6c0.9,0,1.8,0.2,2.8,0.5s1.7,0.8,2.4,1.3l-1.6,2c-1.3-0.9-2.5-1.3-3.7-1.3c-1,0-1.5,0.3-1.5,0.9
		c0,0.5,0.8,1,2.3,1.4c1.2,0.3,2.1,0.6,2.7,1c1.1,0.7,1.7,1.7,1.7,2.9c0,1.2-0.5,2.1-1.5,2.8c-0.9,0.6-2.1,0.9-3.6,0.9
		c-1.1,0-2.1-0.2-3.1-0.5s-1.8-0.8-2.5-1.4l1.6-2c1.2,1,2.5,1.4,3.9,1.4c0.6,0,1-0.1,1.4-0.3c0.3-0.2,0.5-0.5,0.5-0.8
		c0-0.4-0.2-0.6-0.6-0.9c-0.4-0.2-1-0.4-1.7-0.6c-1.1-0.3-2-0.6-2.7-0.9c-1.2-0.7-1.7-1.6-1.7-2.8c0-1.1,0.5-2,1.4-2.6
		C87.8,15,89,14.6,90.4,14.6z"/>
	<path fill="#FFFFFF" d="M98.4,31.6V14.9h3.2v1.6c1.2-1.2,2.6-1.9,4.3-1.9s3,0.6,4.1,1.8s1.6,2.6,1.6,4.4s-0.5,3.3-1.6,4.5
		c-1.1,1.2-2.4,1.8-4.1,1.8s-3.1-0.6-4.3-1.9v6.4H98.4z M102.4,18c-0.6,0.7-1,1.7-1,2.9s0.3,2.1,1,2.9c0.6,0.7,1.5,1.1,2.5,1.1
		s1.8-0.4,2.4-1.1s0.9-1.7,0.9-2.9s-0.3-2.1-0.9-2.9s-1.4-1.1-2.4-1.1S103,17.2,102.4,18z"/>
	<path fill="#FFFFFF" d="M127.3,14.9v11.8H124v-1.6c-1.2,1.2-2.6,1.9-4.3,1.9s-3-0.6-4.1-1.8s-1.6-2.6-1.6-4.4s0.5-3.3,1.6-4.5
		c1.1-1.2,2.4-1.8,4.1-1.8s3.1,0.6,4.3,1.9v-1.6H127.3z M118.4,18c-0.6,0.7-1,1.7-1,2.9s0.3,2.1,0.9,2.9c0.6,0.7,1.4,1.1,2.4,1.1
		s1.8-0.4,2.4-1.1s0.9-1.7,0.9-2.9s-0.3-2.1-0.9-2.9s-1.4-1.1-2.4-1.1S119,17.2,118.4,18z"/>
	<path fill="#FFFFFF" d="M136.7,14.6c2.5,0,4.4,1,5.7,2.9l-2.8,1.3c-0.6-1.3-1.5-2-2.8-2c-0.9,0-1.7,0.4-2.3,1.1s-0.9,1.7-0.9,2.9
		s0.3,2.1,0.9,2.9s1.4,1.1,2.3,1.1c1.3,0,2.3-0.7,2.8-2l2.8,1.3c-1.2,1.9-3.1,2.8-5.7,2.8c-1.9,0-3.5-0.6-4.8-1.8s-1.9-2.6-1.9-4.4
		s0.6-3.3,1.9-4.5S134.8,14.6,136.7,14.6z"/>
	<path fill="#FFFFFF" d="M145,10.1h3.2v6.4c1.1-1.2,2.5-1.9,4.1-1.9c1.3,0,2.4,0.4,3.3,1.3s1.3,2,1.3,3.4v7.5h-3.2v-7.5
		c0-0.7-0.2-1.3-0.7-1.7s-1-0.7-1.7-0.7c-0.9,0-1.6,0.3-2.2,0.9s-0.9,1.3-0.9,2.1v6.9H145V10.1z"/>
	<path fill="#FFFFFF" d="M170.9,16.4c1.2,1.2,1.8,2.7,1.8,4.5c0,0.2,0,0.5-0.1,1h-9.6c0.1,0.9,0.5,1.7,1.2,2.2s1.4,0.8,2.4,0.8
		c1.2,0,2.2-0.5,3.1-1.5l2.6,1.2c-0.6,0.8-1.4,1.4-2.4,1.8s-2.1,0.7-3.2,0.7c-2,0-3.7-0.6-5-1.7s-2-2.6-2-4.4s0.6-3.3,1.9-4.5
		c1.3-1.2,2.8-1.8,4.8-1.8S169.7,15.2,170.9,16.4z M164.1,17.7c-0.5,0.5-0.9,1.3-1.1,2.2h6.3c-0.2-0.9-0.5-1.6-1.1-2.2
		s-1.2-0.8-2.1-0.8C165.4,16.9,164.7,17.1,164.1,17.7z"/>
	<path fill="#FFFFFF" d="M177.4,10c0.5,0,1,0.2,1.4,0.6c0.4,0.4,0.6,0.8,0.6,1.3c0,0.5-0.2,1-0.6,1.4c-0.4,0.4-0.8,0.6-1.3,0.6
		c-0.5,0-1-0.2-1.4-0.6c-0.4-0.4-0.6-0.8-0.6-1.4c0-0.5,0.2-1,0.6-1.3C176.4,10.2,176.9,10,177.4,10z M175.8,14.9h3.2v11.8h-3.2
		V14.9z"/>
</g>
<g>
</g>
<g>
</g>
<g>
</g>
<g>
</g>
<g>
</g>
<g>
</g>
</svg>
